<?xml version="1.0" encoding="iso-8859-1"?>
<!-- Generator: Adobe Illustrator 19.0.0, SVG Export Plug-In . SVG Version: 6.00 Build 0)  -->
<svg version="1.1" id="Capa_1" xmlns="http://www.w3.org/2000/svg" xmlns:xlink="http://www.w3.org/1999/xlink" x="0px" y="0px"
	 viewBox="0 0 512 512" style="enable-background:new 0 0 512 512;" xml:space="preserve">
<polygon style="fill:#544A33;" points="482,316 512,346 512,376 482,376 "/>
<polygon style="fill:#706344;" points="30,316 0,346 0,376 30,376 "/>
<path style="fill:#1C1207;" d="M512,227v119H361c-24.81,0-45,20.19-45,45l-15,15V166h45V76h15C444.26,76,512,143.74,512,227z"/>
<polygon style="fill:#544A33;" points="226,286 301,286 301,406 256,406 "/>
<polygon style="fill:#706344;" points="256,285.58 211,286 211,406 256,406 "/>
<path style="fill:#3D3220;" d="M211,166v240l-15-15c0-24.81-20.19-45-45-45H0V227C0,143.74,67.74,76,151,76h15v90H211z"/>
<polygon style="fill:#544A33;" points="226,436 196,436 196,316 226,286 "/>
<polygon style="fill:#706344;" points="226,136 196,106 196,76 226,76 "/>
<polygon style="fill:#3D3220;" points="286,436 316,436 316,316 286,286 "/>
<polygon style="fill:#544A33;" points="286,136 316,106 316,76 286,76 "/>
<polygon style="fill:#8D8269;" points="316,106 316,166 226,196 256,106 "/>
<polygon style="fill:#AA9C7D;" points="256,106 256,196 196,166 196,106 "/>
<polygon style="fill:#706344;" points="316,166 316,316 256,316 226,235 256,166 "/>
<rect x="196" y="166" style="fill:#8D8269;" width="60" height="150"/>
<g>
</g>
<g>
</g>
<g>
</g>
<g>
</g>
<g>
</g>
<g>
</g>
<g>
</g>
<g>
</g>
<g>
</g>
<g>
</g>
<g>
</g>
<g>
</g>
<g>
</g>
<g>
</g>
<g>
</g>
</svg>
