<?xml version="1.0" encoding="iso-8859-1"?>
<!-- Generator: Adobe Illustrator 19.0.0, SVG Export Plug-In . SVG Version: 6.00 Build 0)  -->
<svg version="1.1" id="Capa_1" xmlns="http://www.w3.org/2000/svg" xmlns:xlink="http://www.w3.org/1999/xlink" x="0px" y="0px"
	 viewBox="0 0 512 512" style="enable-background:new 0 0 512 512;" xml:space="preserve">
<polygon style="fill:#FFCB47;" points="196,219.96 196,411.96 392,441.96 392,239.96 "/>
<polygon style="fill:#FFE49E;" points="256,219.96 256,441.96 120,441.96 120,239.96 "/>
<rect x="120" y="209.96" style="fill:#FFF2CF;" width="136" height="30"/>
<path style="fill:#FFE49E;" d="M256,209.96v30h30v107c0,8.285,6.715,15,15,15s15-6.715,15-15v-107h76v-30L256,209.96L256,209.96z"/>
<polygon style="fill:#7F2F08;" points="465.42,443.67 431.27,511.96 255.81,511.96 215.81,443.67 "/>
<g>
	<polygon style="fill:#AA4A0F;" points="255.81,443.67 255.81,511.96 80.73,511.96 46.58,443.67 	"/>
	<polygon style="fill:#AA4A0F;" points="512,421.963 512,451.963 255.81,451.963 215.81,436.963 255.81,421.963 	"/>
</g>
<rect y="421.96" style="fill:#D46416;" width="255.81" height="30"/>
<path style="fill:#FE2710;" d="M319.55,95.14c7.49,11.94,11.45,25.71,11.45,39.82c0,41.36-33.64,75-75,75l-45-75L256,0.04
	L319.55,95.14z"/>
<path style="fill:#FE7F1E;" d="M256,0.04v209.92c-41.36,0-75-33.64-75-75c0-14.11,3.96-27.88,11.45-39.82l0.24-0.36L256,0.04z"/>
<path style="fill:#FFE49E;" d="M285.206,127.742c3.321,5.393,5.073,11.586,5.073,17.939c0,18.907-15.38,34.279-34.279,34.279
	l-34.279-34.279L256,84.04L285.206,127.742z"/>
<path style="fill:#FFFFFF;" d="M256,84.04v95.92c-18.899,0-34.279-15.372-34.279-34.279c0-6.399,1.783-12.637,5.149-18.054
	L256,84.04z"/>
<g>
</g>
<g>
</g>
<g>
</g>
<g>
</g>
<g>
</g>
<g>
</g>
<g>
</g>
<g>
</g>
<g>
</g>
<g>
</g>
<g>
</g>
<g>
</g>
<g>
</g>
<g>
</g>
<g>
</g>
</svg>
