<?xml version="1.0" encoding="iso-8859-1"?>
<!-- Generator: Adobe Illustrator 19.0.0, SVG Export Plug-In . SVG Version: 6.00 Build 0)  -->
<svg version="1.1" id="Capa_1" xmlns="http://www.w3.org/2000/svg" xmlns:xlink="http://www.w3.org/1999/xlink" x="0px" y="0px"
	 viewBox="0 0 512 512" style="enable-background:new 0 0 512 512;" xml:space="preserve">
<path style="fill:#1C1207;" d="M271,101.736h-30V72c0-39.701,32.299-72,72-72v30c-23.159,0-42,18.841-42,42V101.736z"/>
<path style="fill:#FE7F1E;" d="M332,72c-13.971,0-27.918,1.624-41.454,4.827v430.346C304.082,510.376,318.029,512,332,512
	c99.252,0,180-80.748,180-180v-80C512,152.748,431.252,72,332,72z"/>
<g>
	<path style="fill:#FFA533;" d="M180,72c13.971,0,27.918,1.624,41.454,4.827v430.346C207.918,510.376,193.971,512,180,512
		C80.748,512,0,431.252,0,332v-80C0,152.748,80.748,72,180,72z"/>
	<path style="fill:#FFA533;" d="M436,252v80c0,99.25-80.75,180-180,180l-90-220l90-220C355.25,72,436,152.75,436,252z"/>
</g>
<path style="fill:#FFCB47;" d="M256,72v440c-99.25,0-180-80.75-180-180v-80C76,152.75,156.75,72,256,72z"/>
<path style="fill:#AA4A0F;" d="M181,281.737c-24.813,0-45-20.187-45-45s20.187-45,45-45s45,20.187,45,45
	S205.813,281.737,181,281.737z"/>
<g>
	<path style="fill:#7F2F08;" d="M331,281.737c-24.813,0-45-20.187-45-45s20.187-45,45-45s45,20.187,45,45
		S355.813,281.737,331,281.737z"/>
	<path style="fill:#7F2F08;" d="M321,319.24v30h-30v-30h-35l-34.286,60l34.286,60c66.171,0,120-53.84,120-120H321z"/>
</g>
<path style="fill:#AA4A0F;" d="M221,319.24v30h-30v-30h-55c0,66.16,53.829,120,120,120v-120H221z"/>
<g>
</g>
<g>
</g>
<g>
</g>
<g>
</g>
<g>
</g>
<g>
</g>
<g>
</g>
<g>
</g>
<g>
</g>
<g>
</g>
<g>
</g>
<g>
</g>
<g>
</g>
<g>
</g>
<g>
</g>
</svg>
