<?xml version="1.0" encoding="iso-8859-1"?>
<!-- Generator: Adobe Illustrator 19.0.0, SVG Export Plug-In . SVG Version: 6.00 Build 0)  -->
<svg version="1.1" id="Capa_1" xmlns="http://www.w3.org/2000/svg" xmlns:xlink="http://www.w3.org/1999/xlink" x="0px" y="0px"
	 viewBox="0 0 512 512" style="enable-background:new 0 0 512 512;" xml:space="preserve">
<rect x="436" y="345" style="fill:#706344;" width="61" height="60"/>
<rect x="482" y="315" style="fill:#544A33;" width="30" height="120"/>
<rect x="15" y="345" style="fill:#8D8269;" width="61" height="60"/>
<polygon style="fill:#C6B691;" points="226,160 256,512 376,512 451,345 451,212 "/>
<path style="fill:#AA9C7D;" d="M451,437c0,41.35-33.65,75-75,75v-92c0-41.25,33.75-75,75-75V437z"/>
<polygon style="fill:#E3D1A4;" points="61,212 61,345 136,512 256,512 256,150 "/>
<path style="fill:#C6B691;" d="M61,345c41.25,0,75,33.75,75,75v92c-41.35,0-75-33.65-75-75V345z"/>
<polygon style="fill:#AA9C7D;" points="226,41.25 226,200 451,182 451,71.25 "/>
<polygon style="fill:#C6B691;" points="61,71.25 61,182 256,200 256,41.25 "/>
<rect y="315" style="fill:#706344;" width="30" height="120"/>
<rect x="181" y="285" style="fill:#3D3220;" width="30" height="60"/>
<rect x="301" y="285" style="fill:#1C1207;" width="30" height="60"/>
<polygon style="fill:#8D8269;" points="331,375 331,405 255.81,405 215.81,390 255.81,375 "/>
<rect x="181" y="375" style="fill:#AA9C7D;" width="74.81" height="30"/>
<rect x="199" y="152" style="fill:#8D8269;" width="30" height="90"/>
<g>
	<rect x="367" y="152" style="fill:#706344;" width="30" height="90"/>
	<rect x="283" y="152" style="fill:#706344;" width="30" height="90"/>
</g>
<rect x="115" y="152" style="fill:#8D8269;" width="30" height="90"/>
<polygon style="fill:#706344;" points="451,182 451,212 256,212 236,197 256,182 "/>
<rect x="61" y="182" style="fill:#8D8269;" width="195" height="30"/>
<path style="fill:#1C1207;" d="M451,0v71.25c0,26.92-21.83,48.75-48.75,48.75S353.5,98.17,353.5,71.25
	c0,26.92-21.83,48.75-48.75,48.75S256,98.17,256,71.25l-30-35.625L256,0H451z"/>
<path style="fill:#3D3220;" d="M256,0v71.25c0,26.92-21.83,48.75-48.75,48.75S158.5,98.17,158.5,71.25
	c0,26.92-21.83,48.75-48.75,48.75S61,98.17,61,71.25V0H256z"/>
<g>
</g>
<g>
</g>
<g>
</g>
<g>
</g>
<g>
</g>
<g>
</g>
<g>
</g>
<g>
</g>
<g>
</g>
<g>
</g>
<g>
</g>
<g>
</g>
<g>
</g>
<g>
</g>
<g>
</g>
</svg>
