<?xml version="1.0" encoding="iso-8859-1"?>
<!-- Generator: Adobe Illustrator 19.0.0, SVG Export Plug-In . SVG Version: 6.00 Build 0)  -->
<svg version="1.1" id="Capa_1" xmlns="http://www.w3.org/2000/svg" xmlns:xlink="http://www.w3.org/1999/xlink" x="0px" y="0px"
	 viewBox="0 0 512 512" style="enable-background:new 0 0 512 512;" xml:space="preserve">
<path style="fill:#FFF2CF;" d="M68.5,187.5V512l62.5-62.5l62.5,62.5l62.5-62.5l70-224.75L256,0C152.45,0,68.5,83.95,68.5,187.5z"/>
<path style="fill:#FFE49E;" d="M256,0v449.5l62.5,62.5l62.5-62.5l62.5,62.5V187.5C443.5,83.95,359.55,0,256,0z"/>
<rect x="183.5" y="160.61" style="fill:#FFCB47;" width="30" height="60"/>
<rect x="298.5" y="160.61" style="fill:#FFA533;" width="30" height="60"/>
<path style="fill:#FFCB47;" d="M328.5,308.11h-30c0-23.44-19.07-42.5-42.5-42.5l-10-15l10-15
	C295.98,235.61,328.5,268.13,328.5,308.11z"/>
<path style="fill:#FFE49E;" d="M256,235.61v30c-23.43,0-42.5,19.06-42.5,42.5h-30C183.5,268.13,216.02,235.61,256,235.61z"/>
<g>
</g>
<g>
</g>
<g>
</g>
<g>
</g>
<g>
</g>
<g>
</g>
<g>
</g>
<g>
</g>
<g>
</g>
<g>
</g>
<g>
</g>
<g>
</g>
<g>
</g>
<g>
</g>
<g>
</g>
</svg>
