<svg version="1" xmlns="http://www.w3.org/2000/svg" width="141" height="90"><ellipse fill="#EA6D27" cx="58" cy="50" rx="25" ry="34"/><ellipse fill="#EA6D27" cx="83" cy="50" rx="25" ry="34"/><path fill="#5AAC46" d="M67 21c5-4-1-13 0-16 1-2 3-2 3-2s0-5-5-2c-6 5 1 14-3 19l4 7s11 1 11-4c-3 0-14 1-10-2z"/><path fill="#408840" d="M77 21c-2-7-7-11-9-14l-1-2c-1 3 5 12 0 16-4 3 7 2 10 2v-2z"/><ellipse fill="#EA6D27" cx="47" cy="54" rx="25" ry="34"/><ellipse fill="#F68B3A" cx="47" cy="54" rx="21" ry="34"/><ellipse fill="#EA6D27" cx="93" cy="54" rx="25" ry="34"/><ellipse fill="#F68B3A" cx="93" cy="54" rx="21" ry="34"/><ellipse fill="#EA6D27" cx="81" cy="53" rx="25" ry="34"/><ellipse fill="#F68B3A" cx="81" cy="53" rx="21" ry="34"/><ellipse fill="#EA6D27" cx="59" cy="53" rx="25" ry="34"/><ellipse fill="#F68B3A" cx="59" cy="53" rx="21" ry="34"/><ellipse fill="#EA6D27" cx="70" cy="53" rx="25" ry="34"/><ellipse fill="#F68B3A" cx="70" cy="53" rx="21" ry="34"/><path fill="#408840" d="M67 0c1 0 2 0 3 3h-1s-3-2-2-3z"/><path fill="#84161A" d="M0 46c7 0 8-4 8-7v-9l-1-9c0-9 6-13 15-13h2v5h-2c-6 0-8 4-8 9l1 8v8c0 6-2 10-7 11 5 1 7 5 7 11v8l-1 8c0 5 2 9 8 9h2v5h-2c-9 0-15-3-15-14l1-8v-9c0-3-1-7-8-7v-6zM141 50c-7 0-8 4-8 8l1 9 1 8c0 10-7 14-15 14h-3v-6h2c6 0 8-3 8-9v-7l-1-8c0-7 3-10 7-11-4-2-7-5-7-12l1-8v-7c0-6-2-9-8-9h-2V6h3c8 0 15 4 15 14l-1 9-1 8c0 4 1 8 8 8v5z"/><path fill="#EA6D27" d="M36 62v-5-1l9-9h-8v-1h-1v-5l1-1h18v6l-9 10h9l1 1v4l-1 1H37h-1zM63 62V47h-5-1v-6-1h20v7h-6v15h-7-1zM80 62V41v-1h5l2 1 4 8 5-8 1-1h6v22h-7v-9l-3 3v1h-3-1v-1l-2-3v9h-7z"/><path fill="#87311B" d="M37 63v-5-1l9-9h-8l-1-1v-5-1h19v6l-9 10h9v6H37z"/><path fill="#86311B" d="M37 41h19v7l-9 9h9v6H37v-5-1l9-9h-8l-1-1v-5-1z"/><path fill="#85311B" d="M37 41h19v7l-9 9h9v6H37v-5-1l9-9-1-1h-8v-5-1z"/><path fill="#84311B" d="M37 41h18a1 1 0 0 1 1 1v6l-9 9h9v5a1 1 0 0 1 0 1H38h-1v-5-1l9-10h-9v-5-1z"/><path fill="#83311B" d="M37 41h19v7l-9 9h9v6H38a1 1 0 0 1-1-1v-4-1l9-10h-9v-5-1z"/><path fill="#82311B" d="M37 41h19v6l-1 1-8 9h9v6H38h-1v-5-1l9-10h-9v-5-1z"/><path fill="#81311B" d="M38 42v-1h17l1 1v5l-1 1-8 9h9v6H38h-1v-5l1-1 8-10h-8-1v-5h1z"/><path fill="#80301B" d="M38 42v-1h17l1 1v5l-1 1-8 9h9v6H38h-1v-5l1-1 8-10h-8-1v-5h1z"/><path fill="#7F301B" d="M38 42v-1h17l1 1v5l-1 1-8 9h9v6H38h-1v-5l1-1 8-10h-8l-1-4v-1h1z"/><path fill="#7E301B" d="M38 42v-1h17l1 1v5l-1 1-8 9h9v6H38h-1v-5l1-1 8-10h-8l-1-4v-1h1z"/><path fill="#7D301B" d="M38 42v-1h17l1 1c1 1 0 0 0 0v5l-1 1-8 9h9v6H38h-1v-5l1-1 8-10h-8l-1-4v-1h1z"/><path fill="#7C301B" d="M38 42v-1h17l1 1v5l-1 1-8 9h9v6H38h-1v-5l1-1 8-10h-8l-1-4v-1h1z"/><path fill="#7B301B" d="M38 42v-1h17l1 1v5l-1 1-8 9h9v6H38h-1v-5l1-1 9-10h-9l-1-4v-1h1z"/><path fill="#7A301B" d="M38 42v-1h17l1 1v5l-1 1-8 9h9v6H38h-1v-5l1-1 9-10h-9l-1-4v-1h1z"/><path fill="#79301B" d="M38 42v-1h17l1 1v5l-1 1-8 9h9v6H38h-1v-5l1-1 9-10h-9l-1-4v-1h1z"/><path fill="#78301B" d="M38 42v-1h17l1 1v5l-1 1-8 9h8l1 1v5H38h-1v-5l1-1 9-10h-8-1l-1-4v-1h1z"/><path fill="#77301B" d="M38 42v-1h17l1 1v5l-1 1-8 9h8l1 1v5H38h-1v-5l1-2 9-9h-8-1l-1-4v-1h1z"/><path fill="#76301B" d="M38 42v-1h17l1 1v5l-1 1-8 9h8l1 1v5H38h-1v-5l1-2 9-9h-8-1v-1l-1-3v-1h1z"/><path fill="#75301B" d="M38 42v-1h17l1 1v5l-1 1-8 9h8l1 1v5H38h-1v-5l1-2 9-9h-8-1v-1l-1-3v-1h1z"/><path fill="#74301B" d="M38 42v-1h17l1 1c1 0 0 0 0 0v2l-1 3v1l-8 9h8l1 1v5H38h-1v-5l1-2 9-9h-8-1v-1l-1-3v-1h1z"/><path fill="#73301B" d="M38 42h18v2l-1 3v1l-8 9h8l1 1v5H38h-1v-5l1-2 9-9h-8-1v-5z"/><path fill="#72301B" d="M38 42h18v2l-1 3v1l-8 9h8l1 1v5H38h-1v-5l1-2 9-9h-8-1v-5z"/><path fill="#71301B" d="M38 42h18v2l-1 3v1l-8 9h8v1l1 3v2H38h-1v-3l1-2v-2l9-9h-8-1v-5z"/><path fill="#702F1B" d="M38 42h18v2l-1 3v1l-8 9h8v1l1 3v2H38h-1v-3l1-3v-1l9-9h-8l-1-1v-4z"/><path fill="#702F1B" d="M38 42h18v2l-1 3v1l-8 9h8v1l1 3v1l-1 1H38l-1-1v-2l1-3v-1l9-9h-8l-1-1v-4z"/><path fill="#6F2F1B" d="M38 42h18v2l-1 3v1l-8 9h8v1l1 3v1l-1 1H38l-1-1v-2l1-3v-1l9-9h-8l-1-1v-4z"/><path fill="#6E2F1B" d="M38 42h18v2l-1 3v1l-9 9h9v1l1 3v1l-1 1H38v-1h-1v-2l1-3v-1l9-9h-8l-1-1v-4z"/><path fill="#6D2F1B" d="M38 42h18v2l-1 3v1l-9 9h9v1l1 3v1l-1 1H38v-1h-1v-2l1-3v-1l9-9h-8l-1-1v-4z"/><path fill="#6C2F1B" d="M38 42h18v2l-1 3v1l-9 9h9v1l1 3v1l-1 1H38v-1h-1v-2l1-3v-1l9-9h-8l-1-1v-4z"/><path fill="#6B2F1B" d="M38 42h18v2l-1 3v1l-9 9h9v1l1 3v1l-1 1H38v-1h-1v-2l1-3v-1l9-9h-8l-1-1v-4z"/><path fill="#6A2F1B" d="M38 42h18v2l-1 3v1l-9 9h9v1l1 3v1l-1 1H38v-1h-1v-2l1-3v-1l9-9h-8v-1l-1-3v-1z"/><path fill="#692F1B" d="M38 42h17l1 1v1l-1 3v1l-9 9h9v1l1 3v1l-1 1H38v-1h-1v-2l1-3v-1l9-9h-8v-1l-1-2v-1-1z"/><path fill="#682F1B" d="M38 42h17v6l-9 9h9v1l1 3v1l-1 1H38v-1h-1v-2l1-3v-1l9-9h-8v-1l-1-2v-1-1z"/><path fill="#672E1B" d="M38 42h17v6l-9 9h9v1l1 3v1l-1 1H38v-1h-1v-2l1-3v-1l9-9h-8v-1l-1-2v-1-1z"/><path fill="#662E1B" d="M38 42h17v6l-9 9h9v1l1 3v1l-1 1H38v-1h-1v-2l1-3v-1l9-9h-8v-1l-1-2v-1-1z"/><path fill="#662E1B" d="M38 42h17v6l-9 9h9v1l1 3v1l-1 1H38v-1h-1v-2l1-3v-1l9-9h-7-1v-1l-1-2v-1-1z"/><path fill="#652E1B" d="M38 42h17v5l-1 1-8 9h8l1 1 1 3v1H38h-1v-2l1-3 1-1 8-9h-7-1v-1l-1-2v-1-1z"/><path fill="#642E1B" d="M38 42h17v5l-1 1-8 9h8v1h1l1 3v1H38h-1v-2l1-3 1-1 8-9h-7-1v-1l-1-2v-1-1z"/><path fill="#632E1B" d="M38 42h17v5l-1 1-8 9h8v1h1l1 3v1H38v-5l1-1 8-9h-7-1v-1l-1-2v-1-1z"/><path fill="#622E1B" d="M38 42h17v5l-1 1-8 9h8v1h1l1 3v1H38v-5l1-1 8-9h-7-1v-1l-1-2v-1-1z"/><path fill="#612D1B" d="M38 42h17v5l-1 1-8 9h8v1h1l1 3v1H38v-5l1-1 8-9h-7-1v-1l-1-2v-1-1z"/><path fill="#602D1B" d="M38 42h17v5l-1 1-8 9h8v1h1l1 3v1H38v-5l1-1 9-9h-8-1v-1l-1-2v-1-1z"/><path fill="#5F2D1B" d="M38 42h17v5l-1 1-8 9h8v1h1l1 3v1H38v-5l1-1 9-9h-8-1v-1l-1-2v-1-1z"/><path fill="#5F2D1B" d="M38 42h17v5l-1 1-8 9h8v1h1l1 2v2H38v-5l1-1 9-9h-8-1v-1l-1-2v-1-1z"/><path fill="#5E2D1B" d="M38 42h17v5l-1 1-8 9h7l1 1 2 2v2H38v-5l1-1 9-9h-8l-1-1-1-2v-1-1z"/><path fill="#5D2D1B" d="M38 42h17v5l-1 1-8 9h7l1 1 2 2v2H38v-5l1-1 9-9h-8l-1-1-1-2v-1-1z"/><path fill="#5C2D1B" d="M38 42h17v5l-1 1-8 9h7l1 1 2 2v2H38v-5l1-1 9-9h-8l-1-1-1-2v-1-1z"/><path fill="#5B2C1B" d="M38 42h17v5l-1 1-8 9v1h8l2 2v2H38v-5l1-1 9-9h-8l-1-1-1-2v-1-1z"/><path fill="#5A2C1B" d="M38 42h17v5l-1 1-8 9v1h8l2 2v2h-1c-1 0 0 0 0 0H38v-5l1-1 9-9h-8l-1-1-1-2v-1-1z"/><path fill="#592C1B" d="M38 42h17v5l-1 1-8 9v1h8l2 2v1l-1 1H38v-5l1-1 9-9h-8l-1-1-1-2v-1-1z"/><path fill="#592C1B" d="M38 42h17v5l-1 1-8 9v1h8l2 2v1l-1 1H38v-5l1-1 9-9h-8l-1-1-1-2v-1-1z"/><path fill="#582C1A" d="M38 42h17v5l-1 1-8 9v1h8l2 2v1l-1 1H38v-5l1-1 9-9h-8v-1h-1l-1-2v-1-1z"/><path fill="#572B1A" d="M38 42h17v5l-1 1-8 9v1h8l2 2v1l-1 1H38v-5l1-1 9-9h-7l-1-1h-1l-1-2v-1-1z"/><path fill="#562B1A" d="M38 42h17v3l-1 2v1l-8 9v1h8l2 2v1l-1 1H38v-5l1-1 9-9h-7l-1-1-2-2v-1-1z"/><path fill="#552B1A" d="M38 42h17v3l-1 2v1l-8 9v1h8l2 2v1l-1 1H38v-5l1-1 9-9h-7l-1-1-2-2v-1-1z"/><path fill="#542B1A" d="M38 42h17v3l-1 2v1l-8 9v1h8l2 2v1l-1 1H38v-3l1-2v-1l9-9h-7l-1-1-2-2v-1-1z"/><path fill="#542B1A" d="M38 42h17v3l-1 2v1l-9 9 1 1h8l1 2v2H38v-3l1-2v-1l9-9h-7l-1-1-2-2v-1-1z"/><path fill="#532B1A" d="M38 42h17v3l-1 2v1l-9 9 1 1h8l1 2v2H38v-3l1-2v-1l9-9h-7l-1-1-2-2v-1-1z"/><path fill="#522A1A" d="M38 42h17v3l-1 2v1l-9 9 1 1h8l1 2v2H38v-3l1-2v-1l9-9h-7l-1-1-2-2v-1-1z"/><path fill="#512A1A" d="M38 42h17v3l-1 2v1l-9 9 1 1h8l1 2v2H38v-3l1-2v-1l9-9h-7l-1-1-2-2v-1-1z"/><path fill="#502A1A" d="M38 42h17v3l-1 2v1l-9 9 1 1h8l1 2v2H38v-3l1-2v-1l9-9v-1h-7-1l-2-2v-1-1z"/><path fill="#4F2A1A" d="M38 42h17v3l-1 2v1l-9 9 1 1h8l1 2v2H38v-3l1-2v-1l9-9v-1h-7-1l-2-2v-1-1z"/><path fill="#4F2A1A" d="M38 42h17v3l-1 2v1l-9 9 1 1h8l1 2v2H38v-3l1-2v-1l9-9v-1h-7-1l-2-2v-1-1z"/><path fill="#4E291A" d="M38 42h17v3l-1 2v1l-9 9 1 1h8l1 2v2H39h-1v-3l1-2v-1l9-9v-1h-7-1l-2-2v-1-1z"/><path fill="#4D291A" d="M38 42h17v3l-1 2v1l-9 9v1h9l1 2v2H39h-1v-3l1-2v-1l9-9v-1h-7-1l-2-2v-1-1z"/><path fill="#4C291A" d="M38 42h17v3l-1 2v1l-9 9v1h9l1 2v2H39h-1v-3l1-2v-1l9-9v-1h-8l-2-2v-1-1z"/><path fill="#4B291A" d="M38 42h17v3l-1 2v1l-9 9v1h9l1 2v2H39h-1v-3l1-2 1-1 8-9v-1h-8l-2-2v-1-1z"/><path fill="#4B291A" d="M38 42h17v3l-1 2-1 1-8 9v1h8l2 2v2H39h-1v-3l1-2 1-1 8-9v-1h-7-1l-2-2v-1-1z"/><path fill="#4A281A" d="M38 42h17v3l-1 2-1 1-8 9v1h8l2 2v2H39h-1v-3l1-2 1-1 8-9v-1h-7-1l-2-2v-1-1z"/><path fill="#49281A" d="M38 42h17v3l-1 2-1 1-8 9v1h8l2 2v2H39h-1v-3l1-2 1-1 8-9v-1h-7-1l-2-2v-1-1z"/><path fill="#48281A" d="M38 42h17v3l-1 2-1 1-8 9v1h8l2 2v2H39h-1v-3l1-2 1-1 9-9-1-1h-7-1l-2-2v-1-1z"/><path fill="#472819" d="M39 43v-1h15l1 1v2l-1 2-1 1-8 9v1h8l2 2v2H39h-1v-3l1-2 1-1 9-9-1-1h-7-1l-2-2v-1h1z"/><path fill="#472819" d="M39 43v-1h15l1 1v2l-1 2-1 1-8 9v1h8l2 2v2H39h-1v-3l1-2 1-1 9-9-1-1h-7-1l-2-2v-1h1z"/><path fill="#462719" d="M39 43v-1h15l1 1v2l-1 2-1 1-8 9v1h8l2 2v2H39h-1v-3l1-2 1-1 9-9v-1h-8-1l-2-2v-1h1z"/><path fill="#452719" d="M39 43v-1h15l1 1v2l-1 2-1 1-8 9v1h8l2 2v2H39h-1v-3l1-2 1-1 9-9v-1h-7-1-1l-2-2v-1h1z"/><path fill="#442719" d="M39 43v-1h15l1 1v2l-1 2-1 1-8 9v1h8l2 2v2H39h-1v-3l1-2 1-1 9-9v-1h-7-1l-3-2v-1h1z"/><path fill="#432719" d="M39 43v-1h15l1 1v2l-1 2-1 1-8 9v1h8l2 2v2H39h-1v-3l1-2 1-1 9-9v-1h-7-1l-3-2v-1h1z"/><path fill="#432619" d="M39 43v-1h15l1 1v2l-1 2-1 1-8 9v1h8l2 2v2H39h-1v-3l1-2 1-1 9-9v-1h-7-1l-3-2v-1h1z"/><path fill="#422619" d="M39 43h16v2l-1 2-1 1-8 9v1h8l2 2v2H39h-1v-3l1-2 1-1 9-9v-1h-7-1l-2-2v-1z"/><path fill="#412619" d="M39 43h16v2l-1 2-1 1-8 10h8l2 2v2H39h-1v-3l1-2 1-1 9-9v-1h-7-1l-2-2v-1z"/><path fill="#402619" d="M39 43h16v2l-1 2-1 1-8 10h8l2 2v2H39h-1v-3l1-2 1-1 9-9v-1h-7-1l-2-2v-1z"/><path fill="#3F2519" d="M39 43h16v2l-1 2-1 1-8 10h8l2 2v2H39h-1v-3l1-2 1-1 9-9v-1h-7-1l-2-2v-1z"/><path fill="#3F2519" d="M39 43h16v2l-1 2-1 1-8 10h8l2 2v2H39h-1v-3l1-2 1-1 9-9v-1h-7-1l-2-2v-1z"/><path fill="#3E2518" d="M39 43h16v2l-1 2-1 1-8 10h8l2 2v2H39h-1v-3l1-2 1-1 9-9v-1h-7-1l-2-2v-1z"/><path fill="#3D2518" d="M39 43h16v2l-1 2-1 1-8 10h8l2 2v2H39h-1v-3l1-2 1-1 9-9v-1h-7-1l-2-2v-1z"/><path fill="#3C2418" d="M39 43h16v2l-1 2-1 1-8 10h-1 9l2 2v2H39h-1v-3l1-2 1-1 9-9v-1h-7-1l-2-2v-1z"/><path fill="#3B2418" d="M39 43h16v2l-2 2v1l-8 10h-1 9l2 2v2H39h-1v-3l1-2 1-1 9-9v-1h-8l-2-2v-1z"/><path fill="#3B2418" d="M39 43h16v2l-2 2v1l-9 10h9l2 2v2H39h-1v-3l1-2 1-1 9-9v-1h-7-1l-2-2v-1z"/><path fill="#3A2418" d="M39 43h16v2l-2 2v1l-9 10h8l1 1 2 1v2H39h-1v-3l2-2v-1l9-9v-1h-7-1l-2-2v-1z"/><path fill="#392318" d="M39 43h16v2l-2 2v1l-9 10h8v1l3 1v1l-1 1H39l-1-1v-2l2-2v-1l9-9v-1h-7-1l-2-2v-1z"/><path fill="#382318" d="M39 43h15v2l-1 2v1l-9 10h8v1l3 1v1l-1 1H39l-1-1v-2l2-2v-1l9-9v-1h-7-1l-2-2v-1z"/><path fill="#382318" d="M39 43h15v2l-1 2v1l-9 10h8v1l3 1v1l-1 1H39v-1h-1v-2l2-2v-1l9-9v-1h-7-1l-2-2v-1z"/><path fill="#372217" d="M39 43h15v2l-1 3-9 10h8v1l3 1v1l-1 1H39v-1h-1v-2l2-2v-1l9-9v-1h-7-1l-2-2v-1z"/><path fill="#362217" d="M39 43h15v2l-1 3-9 10h8v1l3 1v1l-1 1H39v-1h-1v-2l2-2v-1l9-9 1-1h-8-1l-2-1v-2z"/><path fill="#352217" d="M39 43h15v2l-1 3-9 10h8v1l3 1v1H38v-2l2-2v-1l9-9 1-1h-7-1-1l-2-1v-1-1z"/><path fill="#342217" d="M39 43h15v3l-1 2-9 10h8v1l3 1v1H39h-1v-2l2-2v-1l9-10h1-7-1-1l-2-1v-1-1z"/><path fill="#342117" d="M39 43h15v3l-1 2-9 10h8v1l3 1v1H39v-2l1-2 1-1 8-10h1-7-1-1l-2-1v-1-1z"/><path fill="#332117" d="M39 43h15v3l-1 2-9 10h8v1l3 1v1H39v-2l1-2 1-1 8-10h1-7-1l-3-1v-1-1z"/><path fill="#322117" d="M39 43h15v3l-1 2h-1l-8 10h8v1l3 1v1H39v-2l1-2 1-1 8-10h1-7-1l-3-1v-1-1z"/><path fill="#312016" d="M39 43h15v3l-1 2h-1l-8 10h7l1 1 3 1v1H39v-2l1-2 1-1 9-10h-7-1l-3-1v-1-1z"/><path fill="#302016" d="M39 43h15v3l-1 2h-1l-8 10h7l1 1 3 1v1H39v-2l1-2 1-1 9-10h-7-1l-3-1v-1-1z"/><path fill="#302016" d="M39 43h15v3l-1 2h-1l-8 10h7l1 1 3 1v1H39v-2l1-2 1-1 9-10h-7-1l-3-1v-1-1z"/><path fill="#2F1F16" d="M39 43h15v3l-1 2-1 1-8 9h7v1h1l3 1v1H39v-2l1-2 1-1 9-10h-7-1l-3-1v-1-1z"/><path fill="#2E1F16" d="M39 43h15v3l-1 2-1 1-8 9h7v1h1l3 1v1H39v-2l1-2 1-1 9-10h-7-1l-3-1v-1-1z"/><path fill="#2D1F15" d="M39 43h15v3l-1 2-1 1-8 9h7v1h1l3 1v1H39v-2l1-2 1-1 9-10h-7-1l-3-1v-1-1z"/><path fill="#2C1E15" d="M39 43h15v3l-1 2-1 1-8 9v1h8l3 1v1H39v-2l1-2 1-1 9-10h-7-1l-3-1v-1-1z"/><path fill="#2B1E15" d="M39 43h15v3l-1 2-1 1-8 9-1 1h12v2H39v-2l1-2 1-1 9-10h-8l-3-1v-1-1z"/><path fill="#2B1E15" d="M39 43h15v3l-1 2-1 1-8 9-1 1h12v2H39v-2l1-2 1-1 9-10h-7l-1-1h-3v-1-1z"/><path fill="#2A1D14" d="M39 43h15v3l-1 2-1 1-8 9-1 1h12v2H39v-2l1-2 1-1 9-10h-7l-1-1h-3v-1-1z"/><path fill="#291D14" d="M39 43h15v3l-1 2-1 1-8 9-1 1h12v2H39v-2l1-2 1-1 9-10h-7l-1-1h-3v-1-1z"/><path fill="#281C14" d="M39 43h15v3l-1 2-1 1-8 9-1 1h12v2H39v-3l1-1 1-1 9-10h-7l-1-1h-3v-1-1z"/><path fill="#271C14" d="M39 43h15v3l-1 2-1 1-8 9-1 1h12v1l-1 1H39v-3l1-1 1-1 9-10h-7l-1-1h-3v-1-1z"/><path fill="#261C13" d="M39 43h15v3l-1 2-1 1-8 9-1 1h12v1l-1 1c-1 0 0 0 0 0H39v-3l1-2h1l9-10h-7l-1-1h-3v-1-1z"/><path fill="#251B13" d="M39 43h15v3l-1 2-1 1-8 9-1 1h11v2H39v-3l1-2h1l9-10h1-8l-1-1h-3v-1-1z"/><path fill="#251B13" d="M39 43h15v3l-1 2-1 1-8 9-1 1h11v2H39v-3l1-2h1l9-10h1-7-1l-1-1h-3v-1-1z"/><path fill="#241A12" d="M39 43h15v3l-1 2-1 1-8 9-1 1h11v2H39v-3l1-2h1l9-10h1-7l-1-1h-4v-1-1z"/><path fill="#231A12" d="M39 43h15v3l-1 2-1 1-8 9-1 1h11v2H39v-3l1-2h1l9-10h1-7l-1-1h-4v-1-1z"/><path fill="#221912" d="M39 43h15v3l-1 2-1 1-8 9-1 1h11v2H39v-3l1-2h1l9-10h1-7l-1-1h-4v-1-1z"/><path fill="#211912" d="M39 43h15v3l-1 2-1 1-9 9v1h11v2H39v-3l1-2h1l9-10 1-1h-7-1-4v-1-1z"/><path fill="#201811" d="M39 43h15v3l-1 2-1 1-9 9v1h11v2H39v-3l1-2h1l9-10 1-1h-7-5v-1-1z"/><path fill="#1F1811" d="M39 43h15v3l-2 2v1l-9 9v1h11v2H39v-3l2-2v-1l9-9 1-1h-7-5v-1-1z"/><path fill="#1E1710" d="M39 43h15v3l-2 2v1l-9 9v1h11v2H39v-3l2-2v-1l9-9 1-1h-7-5v-1-1z"/><path fill="#1D1710" d="M39 43h15v3l-2 2v1l-9 9v1h11v2H39v-3l2-2v-1l9-9 1-1h-7-5v-1-1z"/><path fill="#1C1610" d="M39 43h15v3l-2 2v1l-9 9v1h11v2H39v-3l2-2v-1l9-9 1-1h-7-5v-1-1z"/><path fill="#1B160F" d="M39 43h15v3l-2 2v1l-9 9v1h11v2H40h-1v-3l2-2v-1l9-9 1-1h-7-5v-1-1z"/><path fill="#1A150F" d="M39 43h15v3l-2 2v1l-9 9v1h11v2H40h-1v-3l2-2v-1l9-9 1-1h-7-5v-1-1z"/><path fill="#19150F" d="M39 43h15v3l-2 2v1l-9 9-1 1h12v2H40h-1v-3l2-2 1-1 8-9 1-1h-7-5v-1-1z"/><path fill="#19140E" d="M39 43h15v3l-2 2v1l-9 9-1 1h12v2H40h-1v-3l2-2 1-1 8-9 1-1h-7-5v-1-1z"/><path fill="#18140E" d="M39 43h15v3l-2 2v1l-9 9-1 1h12v2H40h-1v-3l2-2 1-1 9-9v-1h-7-5v-1-1z"/><path fill="#16130D" d="M39 43h15v3l-2 2-1 1-8 9-1 1h12v2H40h-1v-3l2-2 1-1 9-9v-1h-7-5v-1-1z"/><path fill="#15130D" d="M39 43h15v3l-2 2-1 1-8 9-1 1h12v2H40h-1v-3l2-2 1-1 9-9v-1h-7-5v-1-1z"/><path fill="#14120C" d="M39 43h15v3l-2 2-1 1-8 9-1 1h12v2H40h-1v-3l2-2 1-1 9-9v-1H39v-1-1z"/><path fill="#13110C" d="M39 43h15v3l-2 2-1 1-8 9-1 1h12v2H40h-1v-3l2-2 1-1 9-9v-1h-7-5v-1-1z"/><path fill="#12110B" d="M39 43h15v3l-2 2-1 1-8 9-1 1h12v2H40h-1v-3l2-2 1-1 9-9v-1h-7-5v-1-1z"/><path fill="#11100B" d="M39 43h15v3l-2 2-1 1-8 9-1 1h7a72 72 0 0 0 1 0h4v2H40h-1v-3l2-2 1-1 9-9 1-1h-7-1-5v-1-1z"/><path fill="#F9ED23" d="M39 61v-3l13-13H39v-2h15v3L42 59h12v2z"/><path fill="#87311B" d="M64 63V48h-5-1v-6-1h20v7h-6v15h-7-1z"/><path fill="#86311B" d="M58 41h20v7h-6v15h-7-1V48h-5-1v-6-1z"/><path fill="#85311B" d="M58 41h20v7h-6v15h-7-1V48h-5-1v-6-1z"/><path fill="#84311B" d="M58 41h19a1 1 0 0 1 1 1v6h-6v15h-7-1V48h-5-1v-6-1z"/><path fill="#83311B" d="M58 41h20v7h-6v15h-7-1V48h-5-1v-6-1z"/><path fill="#82311B" d="M58 41h20v7h-6v15h-7-1V48h-5-1v-6-1z"/><path fill="#81311B" d="M58 42l1-1h18l1 1v6h-6v15h-7-1V48h-5-1v-6z"/><path fill="#80301B" d="M58 42l1-1h18l1 1v6h-6v15h-7-1V48h-5l-1-1v-5z"/><path fill="#7F301B" d="M58 42l1-1h18l1 1v6h-6v15h-7-1V48h-5l-1-1v-5z"/><path fill="#7E301B" d="M58 42l1-1h18l1 1v5l-1 1h-5v15h-7-1V48h-5l-1-1v-5z"/><path fill="#7D301B" d="M58 42l1-1h18l1 1c0 1 0 0 0 0v5h-1v1h-5v15h-7-1V48h-5v-1h-1v-5z"/><path fill="#7C301B" d="M58 42l1-1h18l1 1v5h-1v1h-5v15h-7-1V48h-5v-1h-1v-5z"/><path fill="#7B301B" d="M58 42l1-1h18l1 1v5h-1v1h-5v15h-7v-1h-1V48h-5v-1h-1v-5z"/><path fill="#7A301B" d="M58 42l1-1h18l1 1v5h-1v1h-5v15h-7v-1h-1V48h-5v-1h-1v-5z"/><path fill="#79301B" d="M58 42l1-1h18l1 1v5h-1v1h-5v15h-7v-1h-1V48h-5v-1l-1-3v-2z"/><path fill="#78301B" d="M59 42v-1h18l1 1v5h-1v1h-5v15h-7v-1h-1V48h-5v-1c0-1 0 0 0 0l-1-3v-2h1z"/><path fill="#77301B" d="M59 42v-1h18l1 1v5h-1v1h-5v15h-7v-1h-1V48h-5v-1l-1-3v-2h1z"/><path fill="#76301B" d="M59 42v-1h18l1 1v2l-1 3v1h-5v15h-7v-1h-1V48h-5v-1l-1-3v-2h1z"/><path fill="#75301B" d="M59 42v-1h18l1 1v2l-1 3v1h-5v15h-7v-1h-1V48h-4l-1-1-1-3v-2h1z"/><path fill="#74301B" d="M59 42v-1h18l1 1v2l-1 3v1h-5v14l-1 1h-6v-1h-1V48h-4l-1-1-1-3v-2h1z"/><path fill="#73301B" d="M59 42h19v2l-1 3-1 1h-4v14h-1v1h-6v-1h-1V48h-4l-1-1-1-3v-2h1z"/><path fill="#72301B" d="M59 42h19c1 0 0 0 0 0v2l-1 3-1 1h-4v14h-1v1h-6v-1h-1V48h-4l-1-1-1-3v-2h1z"/><path fill="#71301B" d="M59 42h19v2l-1 3-1 1h-4v14h-1v1h-4l-2-1h-1V48h-4l-1-1-1-3v-2h1z"/><path fill="#702F1B" d="M59 42h19v2l-1 3-1 1h-4v14h-1v1h-4l-2-1h-1V48h-4l-1-1-1-3v-2h1z"/><path fill="#702F1B" d="M59 42h19v2l-1 3h-3l-2 1v14h-1v1h-4l-2-1h-1V48l-1-1h-3-1l-1-3v-2h1z"/><path fill="#6F2F1B" d="M59 42h19v2l-1 3h-3l-2 1v14h-1v1h-4l-2-1V48l-2-1h-3-1l-1-3v-2h1z"/><path fill="#6E2F1B" d="M59 42h19v2l-1 3h-3l-2 1v14h-1v1h-4l-2-1V48l-2-1h-3-1l-1-3v-2h1z"/><path fill="#6D2F1B" d="M59 42h19v2l-1 3h-3l-2 1v14h-1v1h-4l-2-1V48l-2-1h-3-1l-1-3v-2h1z"/><path fill="#6C2F1B" d="M59 42h19v2l-1 3h-3l-2 1v14h-1v1h-4l-2-1V48l-2-1h-3-1v-5z"/><path fill="#6B2F1B" d="M59 42h19v2l-1 3h-3l-2 1v14h-1v1h-4l-2-1V48l-2-1h-3-1v-5z"/><path fill="#6A2F1B" d="M59 42h19v2l-1 3h-4l-1 1v14h-1v1h-4l-2-1V48l-2-1h-3-1v-5z"/><path fill="#692F1B" d="M59 42h19v2l-1 3h-4l-1 1v14h-1v1h-4l-2-1V48l-2-1h-3-1v-5z"/><path fill="#682F1B" d="M59 42h19v2l-1 3h-4l-2 1v15h-4l-2-1V48l-2-1h-3-1v-5z"/><path fill="#672E1B" d="M59 42h18l1 1v1l-1 3h-4l-2 1v15h-4l-2-1V48l-2-1h-3-1v-5z"/><path fill="#662E1B" d="M59 42h18l1 1v1l-1 3h-4l-2 1v15h-4l-2-1V48l-2-1h-4v-4-1z"/><path fill="#662E1B" d="M59 42h18v5h-4l-2 1v15h-4l-2-1V48l-2-1h-4v-4-1z"/><path fill="#652E1B" d="M59 42h18v5h-4l-2 1v14h-6V48l-2-1h-4v-4-1z"/><path fill="#642E1B" d="M59 42h18v5h-4l-2 1v14h-6V48l-2-1h-3-1v-4-1z"/><path fill="#632E1B" d="M59 42h18v5h-4l-2 1v14h-6V48l-2-1h-3-1v-4-1z"/><path fill="#622E1B" d="M59 42h18v5h-4l-2 1v14h-6V48l-2-1h-3-1v-4-1z"/><path fill="#612D1B" d="M59 42h18v5h-4l-2 1v14h-6V48l-2-1h-3-1v-4-1z"/><path fill="#602D1B" d="M59 42h18v5h-4l-2 1v14h-6V48l-1-1h-4-1v-4-1z"/><path fill="#5F2D1B" d="M59 42h18v5h-4l-2 1v14h-6V48l-1-1h-4-1v-4-1z"/><path fill="#5F2D1B" d="M59 42h18v2l-1 3h-3l-2 1v14h-6V48l-1-1h-4l-1-3v-1-1z"/><path fill="#5E2D1B" d="M59 42h18v2l-1 3h-3l-2 1v14h-6V48l-1-1h-4l-1-2v-2-1z"/><path fill="#5D2D1B" d="M59 42h18v2l-1 3h-3l-2 1v14h-6V48l-1-1h-4l-1-2v-2-1z"/><path fill="#5C2D1B" d="M59 42h18v2l-1 3h-3l-2 1v14h-6V48l-1-1h-4l-1-2v-2-1z"/><path fill="#5B2C1B" d="M59 42h18v2l-1 3h-3l-2 1v14h-6V48l-1-1h-4l-1-2v-2-1z"/><path fill="#5A2C1B" d="M59 42h18v2l-1 3h-3l-2 1v14h-6V48l-1-1h-4l-1-2v-2-1z"/><path fill="#592C1B" d="M59 42h18v2l-1 3h-3l-2 1v14h-6V48l-1-1h-3-1l-1-2v-2-1z"/><path fill="#592C1B" d="M59 42h18v2l-1 3h-3l-2 1v14h-6V48l-1-1h-3-1l-1-2v-2-1z"/><path fill="#582C1A" d="M59 42h18v2l-1 2v1h-3l-2 1v14h-6V48l-1-1h-3-1v-1l-1-1v-2-1z"/><path fill="#572B1A" d="M59 42h18v2l-1 2v1h-3l-2 1v14h-6V48l-1-1h-3-1v-1l-1-1v-2-1z"/><path fill="#562B1A" d="M59 42h18v3l-1 1v1h-3l-2 1v14h-5l-1-1V48l-1-1h-3-1v-1l-1-1v-2-1z"/><path fill="#552B1A" d="M59 42h18v3l-1 1v1h-3l-2 1v14h-5l-1-1V48l-1-1h-3-1v-1l-1-1v-2-1z"/><path fill="#542B1A" d="M59 42h18v3l-1 1v1h-3l-2 1v14h-5l-1-1V48l-1-1h-3-1v-1l-1-1v-2-1z"/><path fill="#542B1A" d="M59 42h18v3l-1 1v1h-3l-2 1v14h-4l-1-1h-1V48l-1-1h-3-1v-1l-1-1v-2-1z"/><path fill="#532B1A" d="M59 42h18v3l-1 1v1h-3l-2 1v14h-4l-1-1h-1V48l-1-1h-3-1v-1l-1-1v-2-1z"/><path fill="#522A1A" d="M59 42h18v3l-1 1v1h-4l-1 1v14h-4l-1-1h-1V48l-1-1h-3-1v-1l-1-1v-2-1z"/><path fill="#512A1A" d="M59 42h18v3l-1 1v1h-4l-1 1v14h-4l-1-1h-1V48l-1-1h-3-1v-1l-1-1v-2-1z"/><path fill="#502A1A" d="M59 42h18v3l-1 1-1 1h-3l-1 1v14h-4l-1-1h-1V47h-4-1v-1l-1-1v-2-1z"/><path fill="#4F2A1A" d="M59 42h18v3l-1 1-1 1h-3l-1 1v14h-4l-1-1h-1V47h-4l-1-1-1-1v-2-1z"/><path fill="#4F2A1A" d="M59 42h18v3l-1 1-1 1h-3l-1 1v14h-4l-1-1h-1V47h-4l-1-1-1-1v-2-1z"/><path fill="#4E291A" d="M59 42h18v3l-1 1-1 1h-3l-1 1v14h-4l-1-1h-1V47h-4l-1-1-1-1v-2-1z"/><path fill="#4D291A" d="M59 42h18v3l-1 1-1 1h-3l-1 1v14h-4l-1-1h-1V47h-4l-1-1-1-1v-2-1z"/><path fill="#4C291A" d="M59 42h18v3l-1 1-1 1h-3l-1 1v14h-4l-1-1h-1V47h-4l-1-1-1-1v-2-1z"/><path fill="#4B291A" d="M59 42h18v3l-1 1-1 1h-3l-1 1v14h-4l-1-1h-1V47h-4l-1-1-1-1v-2-1z"/><path fill="#4B291A" d="M59 42h18v3l-1 1-1 1h-3l-1 1v14h-4l-1-1h-1V47h-4l-1-1-1-1v-2-1z"/><path fill="#4A281A" d="M59 42h18v3l-1 1-1 1h-3l-1 1v14h-4l-1-1h-1V47h-4l-1-1-1-1v-2-1z"/><path fill="#49281A" d="M59 42h18v3l-1 1-1 1h-3l-1 1v14h-4l-1-1h-1V47h-4l-1-1-1-1v-2-1z"/><path fill="#48281A" d="M59 42h18v3l-2 1v1h-3l-1 1v13l-1 1h-3l-1-1h-1V47h-4l-1-1-1-1v-2-1z"/><path fill="#472819" d="M59 43l1-1h16l1 1v2l-2 1v1h-3l-1 1v13l-1 1h-3l-1-1h-1V47h-4v-1l-2-1v-2z"/><path fill="#472819" d="M59 43l1-1h16l1 1v2l-2 1v1h-3l-1 1v13l-1 1h-3l-1-1h-1V47h-4v-1l-2-1v-2z"/><path fill="#462719" d="M59 43l1-1h16l1 1v2l-2 1v1h-3l-1 1v13l-1 1h-3l-1-1h-1V47h-4v-1l-2-1v-2z"/><path fill="#452719" d="M59 43l1-1h16l1 1v2l-2 1v1h-3l-1 1v13l-1 1h-3l-1-1h-1V47h-4v-1l-2-1v-2z"/><path fill="#442719" d="M59 43l1-1h16l1 1v2l-2 1-1 1h-2l-1 1v13l-1 1h-3l-1-1h-1V47h-3l-1-1-2-1v-2z"/><path fill="#432719" d="M59 43l1-1h16l1 1v2l-2 1-1 1h-2l-1 1v13l-1 1h-3l-1-1h-1V47h-3l-1-1c0-1 0 0 0 0l-2-1v-2z"/><path fill="#432619" d="M59 43l1-1h16l1 1v2l-2 1-1 1h-2l-1 1v13l-1 1h-3l-1-1v-1h-1V47h-3l-1-1-2-1v-2z"/><path fill="#422619" d="M59 43h18v2l-2 1-1 1h-2l-1 1v13l-1 1h-3l-1-1v-1h-1V47h-3l-1-1-2-1v-2z"/><path fill="#412619" d="M59 43h18v2l-2 1-1 1h-2l-1 1v13l-1 1h-3l-1-1v-1h-1V47h-3l-1-1-2-1v-2z"/><path fill="#402619" d="M60 43h17v2l-2 1-1 1h-2l-1 1v13l-1 1h-3l-1-1v-1h-1V47h-3l-1-1-2-1v-2h1z"/><path fill="#3F2519" d="M60 43h17v2l-2 1-1 1h-2l-1 1v13l-1 1h-3l-1-1v-1h-1V47h-3l-1-1-2-1v-2h1z"/><path fill="#3F2519" d="M60 43h17v2l-2 1h-3l-1 2v13l-1 1h-3l-1-1v-1h-1V46h-3-1l-2-1v-2h1z"/><path fill="#3E2518" d="M60 43h17v2l-2 1h-3l-1 2v13l-1 1h-3l-1-1V47l-1-1h-3-1l-2-1v-2h1z"/><path fill="#3D2518" d="M60 43h17v2l-2 1h-3l-1 2v13h-1v1h-3l-1-1V47l-1-1h-3-1l-2-1v-2h1z"/><path fill="#3C2418" d="M60 43h17v2l-2 1h-3l-1 2v13h-1v1h-3l-1-1V47l-1-1h-3-1l-2-1v-2h1z"/><path fill="#3B2418" d="M60 43h17v2l-2 1h-4v15h-1v1h-3l-1-1V47l-1-1h-3-1l-1-1v-2z"/><path fill="#3B2418" d="M60 43h17v2l-2 1h-4v15h-1v1h-3l-1-1V47l-1-1h-3-1l-1-1v-2z"/><path fill="#3A2418" d="M60 43h17v2l-2 1h-4v15h-1v1h-3l-1-1V47l-1-1h-4l-1-1v-2z"/><path fill="#392318" d="M60 43h17v2l-2 1h-4v15h-1v1h-3l-1-1V47l-1-1h-4l-1-1v-2z"/><path fill="#382318" d="M60 43h17v2l-2 1h-4l-1 2v14h-3l-1-1V47l-1-1h-3-1l-1-1v-2z"/><path fill="#382318" d="M60 43h17v2l-2 1h-4l-1 2v14h-3l-1-2V47l-1-1h-4l-1-1v-2z"/><path fill="#372217" d="M60 43h17v2l-2 1h-4l-1 2v14h-3l-1-2V47l-1-1h-3-1l-1-1v-2z"/><path fill="#362217" d="M60 43h16v2l-1 1h-4l-1 2v14h-3l-1-2V47l-1-1h-3-1l-1-1v-2z"/><path fill="#352217" d="M60 43h16v2l-1 1h-4l-1 2v13h-3l-1-1V47l-1-1h-3-1l-1-1v-2z"/><path fill="#342217" d="M60 43h16v2l-1 1h-4l-1 2v13h-3l-1-1V47l-1-1h-3-1l-1-1v-2z"/><path fill="#342117" d="M60 43h16v2l-1 1h-1-3l-1 2v13h-3l-1-1V47l-1-1h-3-1l-1-1v-2z"/><path fill="#332117" d="M60 43h16v2l-2 1h-3l-1 2v13h-3l-1-1V47l-1-1h-3-1l-1-1v-2z"/><path fill="#322117" d="M60 43h16v2l-2 1h-3l-1 2v13h-3l-1-1V47l-1-1h-3-1l-1-1v-2z"/><path fill="#312016" d="M60 43h16v2l-2 1h-3l-1 2v13h-3l-1-1V47l-1-1h-3-1l-1-1v-2z"/><path fill="#302016" d="M60 43h16v2l-2 1h-3l-1 2v13h-3l-1-1V47l-1-1h-3l-2-1v-2z"/><path fill="#302016" d="M60 43h16v2l-2 1h-3l-1 2v13h-3l-1-1V47l-1-1h-3l-2-1v-1-1z"/><path fill="#2F1F16" d="M60 43h16v2l-2 1h-3l-1 2v13h-3l-1-1V47l-1-1h-2-1l-2-1v-1-1z"/><path fill="#2E1F16" d="M60 43h16v2l-2 1h-3l-1 2v13h-3l-1-1V47l-1-1h-2-1l-2-1v-1-1z"/><path fill="#2D1F15" d="M60 43h16v2l-2 1h-3l-1 2v13h-3l-1-1V47l-1-1h-2-1l-2-1v-1-1z"/><path fill="#2C1E15" d="M60 43h16v2l-2 1h-3l-1 2v13h-3l-1-1V47l-1-1h-2-1l-2-1v-1-1z"/><path fill="#2B1E15" d="M60 43h16v2l-2 1h-3l-1 2v13h-3l-1-1V46h-3-1l-2-1v-1-1z"/><path fill="#2B1E15" d="M60 43h16v2l-2 1h-3l-1 2v13h-3l-1-1V46h-3-1l-2-1v-1-1z"/><path fill="#2A1D14" d="M60 43h16v2l-2 1h-3l-1 2v13h-3l-1-1V46h-3-1l-2-1v-1-1z"/><path fill="#291D14" d="M60 43h16v2l-2 1h-3l-1 2v13h-3l-1-1V46h-3-1l-2-1v-1-1z"/><path fill="#281C14" d="M60 43h16v2l-2 1h-3l-1 2v13h-3l-1-1V46h-3-1l-2-1v-1-1z"/><path fill="#271C14" d="M60 43h16v2l-2 1h-3l-1 2v13h-3l-1-1V46h-3-1l-2-1v-1-1z"/><path fill="#261C13" d="M60 43h16v2l-2 1h-3l-1 2v13h-3l-1-1V46h-3-1l-2-1v-1-1z"/><path fill="#251B13" d="M60 43h16v2l-2 1h-3l-1 2v13h-3l-1-1V46h-3-1l-2-1v-1-1z"/><path fill="#251B13" d="M60 43h16v2l-2 1h-4v15h-3l-1-1V46h-3-1l-2-1v-1-1z"/><path fill="#241A12" d="M60 43h16v2l-2 1h-4v15h-4v-1-14h-4l-2-1v-1-1z"/><path fill="#231A12" d="M60 43h16v2l-2 1h-4v15h-4v-1-14h-4l-2-1v-1-1z"/><path fill="#221912" d="M60 43h16v2l-2 1h-4v15h-4v-1-14h-3-1l-2-1v-1-1z"/><path fill="#211912" d="M60 43h16v2l-2 1h-4v15h-4v-1-14h-3-1l-2-1v-1-1z"/><path fill="#201811" d="M60 43h16v2l-2 1h-4v15h-4v-1-14h-3-1l-2-1v-1-1z"/><path fill="#1F1811" d="M60 43h16v2l-2 1h-4v15h-4v-1-14h-3-1l-2-1v-1-1z"/><path fill="#1E1710" d="M60 43h16v2l-2 1h-4v15h-4v-1-14h-3-1l-2-1v-1-1z"/><path fill="#1D1710" d="M60 43h16v2l-2 1h-1-3v15h-4v-1-14h-3-1l-2-1v-1-1z"/><path fill="#1C1610" d="M60 43h16v2l-2 1h-1-3v15h-4v-1-14h-3-1l-2-1v-1-1z"/><path fill="#1B160F" d="M60 43h16v2l-3 1h-3v15h-4v-1-14h-3-1l-2-1v-1-1z"/><path fill="#1A150F" d="M60 43h16v2l-3 1h-3v15h-4v-2-13h-3-1l-2-1v-1-1z"/><path fill="#19150F" d="M60 43h16v2l-3 1h-3v15h-4v-2-13h-3-1l-2-1v-1-1z"/><path fill="#19140E" d="M60 43h16v2l-3 1h-3v15h-4v-2-13h-3-1l-2-1v-1-1z"/><path fill="#18140E" d="M60 43h16v2l-3 1h-3v15h-4v-2-13h-2-1-1l-2-1v-1-1z"/><path fill="#16130D" d="M60 43h16v2l-3 1h-3v15h-4v-2-13h-2-1l-3-1v-1-1z"/><path fill="#15130D" d="M60 43h16v3h-3-3v15h-4v-2-13h-2-4v-2-1z"/><path fill="#14120C" d="M60 43h16v3h-3-3v15h-4v-2-13h-2-4v-2-1z"/><path fill="#13110C" d="M60 43h16v3h-3-3v15h-4v-2-13h-2-4v-2-1z"/><path fill="#12110B" d="M60 43h16v3h-3-3v15h-4v-2-13h-2-4v-2-1z"/><path fill="#11100B" d="M60 43h16v3h-3-3v15h-4v-2-13h-2-4v-2-1z"/><path fill="#F9ED23" d="M66 61V46h-6v-3h16v3h-6v15z"/><path fill="#87311B" d="M81 63l-1-1V42l1-1h5l2 1 4 8 5-8 1-1h6v22h-7l-1-1v-8l-2 3v1h-3-1v-1l-2-3v8l-1 1h-6z"/><path fill="#86311B" d="M81 41h5l2 1 4 8 5-8 1-1h5l1 1v20l-1 1h-6l-1-1v-8a2270 2270 0 0 0-3 4h-2-1v-1l-2-3v8l-1 1h-6l-1-1V42l1-1z"/><path fill="#85311B" d="M81 41h5l2 1 4 8 5-8 1-1h5l1 1v20l-1 1h-6l-1-1v-8a3611 3611 0 0 1-3 4h-2-1v-1l-2-3v8l-1 1h-6l-1-1V42l1-1z"/><path fill="#84311B" d="M81 41h5l2 1 4 8 5-8 1-1h5a1 1 0 0 1 1 1v20l-1 1h-6l-1-1v-8a5107 5107 0 0 0-3 4h-2-1v-1l-2-3v8l-1 1h-6l-1-1V42l1-1z"/><path fill="#83311B" d="M81 41h5l2 1 4 8 5-8 1-1h5a1 1 0 0 1 1 1v20a1 1 0 0 1-1 1h-6l-1-1v-8a1345 1345 0 0 1-3 4h-2-1v-1l-2-3v8l-1 1h-6l-1-1V42l1-1z"/><path fill="#82311B" d="M81 41h5l2 1 4 8 5-8 1-1h5l1 1v20a1 1 0 0 1-1 1h-6l-1-1v-8-1a1888 1888 0 0 1-3 5h-2-1v-1l-2-3v8l-1 1h-6l-1-1V42l1-1z"/><path fill="#81311B" d="M81 42v-1h5l2 1 4 8 5-8 1-1h5v1h1v20l-1 1h-6v-1h-1v-8-1l-2 4-1 1h-2l-1-1c0-1 0 0 0 0l-2-4v9h-1v1h-6l-1-1V42h1z"/><path fill="#80301B" d="M81 42v-1h5l2 1 4 8 5-8 1-1h5v1h1v20l-1 1h-6v-8l-1-1v-1a2450 2450 0 0 0-3 5h-2l-1-1-2-4v9h-1v1h-6l-1-1V42h1z"/><path fill="#7F301B" d="M81 42v-1h5l2 1 4 8 5-8 1-1h5v1h1v20l-1 1h-6v-8l-1-1v-1l-2 4-1 1h-2l-1-1-2-4v9h-1v1h-6l-1-1V42h1z"/><path fill="#7E301B" d="M81 42v-1h5l2 1 4 8 5-8 1-1h5v1h1v20l-1 1h-6v-8l-1-1v-1l-2 4-1 1h-2l-1-1-2-4v9h-1v1h-6V42z"/><path fill="#7D301B" d="M81 42v-1h5l2 1 4 8 5-8 1-1h5v1h1v20l-1 1h-6v-8l-1-1v-1a3663 3663 0 0 0-3 5h-2l-1-1-2-4v9h-1l-4 1h-2V42z"/><path fill="#7C301B" d="M81 42v-1h3l2 1h2l4 8 5-8h1l2-1h3v1h1v20l-1 1h-2l-4-1v-7l-1-1v-1a5929 5929 0 0 1-3 5h-2l-1-1-2-4v9h-1l-4 1h-2V42z"/><path fill="#7B301B" d="M81 42v-1h3l2 1h2l4 8 5-8h1l2-1h3v1h1v20l-1 1h-2l-4-1v-7l-1-1v-1l-2 4h-1l-1 1h-1l-1-1-2-4v8l-1 1-4 1h-2V42z"/><path fill="#7A301B" d="M81 42v-1h3l2 1h2l4 8 5-8h1l2-1h3v1h1v20l-1 1h-2l-4-1v-7l-1-2a1541 1541 0 0 1-3 4l-1 1h-1l-1-1-2-4v8l-1 1-4 1h-2V42z"/><path fill="#79301B" d="M81 42v-1h3l2 1 2 1 4 7 5-7 1-1 2-1h3v1h1v20l-1 1h-2l-4-1v-9h-1a58866 58866 0 0 0-3 4l-1 1h-1l-1-1-2-4-1 3v6l-4 1h-2V42z"/><path fill="#78301B" d="M81 42v-1h3l2 1 2 1 4 7 5-7 1-1 2-1h3v1h1v20l-1 1h-2l-4-1v-9h-1a2218 2218 0 0 1-3 4l-1 1h-1l-1-1-2-4-1 3v6l-4 1h-2V42z"/><path fill="#77301B" d="M81 42v-1h3l2 1 2 1 4 7 5-7 1-1 2-1h3v22h-2l-4-1v-9h-1a4190 4190 0 0 0-3 4l-1 1h-1l-1-1-2-4-1 2v7l-4 1h-2V42z"/><path fill="#76301B" d="M81 42v-1h3l2 1 2 1 4 7 5-7 1-1 2-1h3v22h-2l-4-1v-9h-1a25554 25554 0 0 1-3 4l-1 1h-1l-1-1-2-4-1 2v7l-4 1h-2V42z"/><path fill="#75301B" d="M81 42v-1h3l2 1 2 1 4 7 5-7 1-1 2-1h3v22h-2l-4-1v-9h-1a2887 2887 0 0 0-3 4l-1 1h-1l-1-1-2-4-1 2v7l-4 1h-2V42z"/><path fill="#74301B" d="M81 42l1-1h2l2 1 2 1 4 7 5-7 1-1 2-1h3v22h-2l-4-1v-9l-3 3v1h-1l-1 1h-1l-1-1-2-4-1 2v7c0 1 0 0 0 0l-4 1h-2V42z"/><path fill="#73301B" d="M81 42h5l2 1 4 7 5-7 1-1h5v21h-2l-4-1v-9l-3 3v1h-1l-1 1h-1l-1-1-2-4-1 2v7l-4 1h-2V42z"/><path fill="#72301B" d="M81 42h5l2 1 4 7 5-7 1-1h5v21h-2l-4-1v-9l-3 3v1h-1-2-1l-2-4-1 2v7l-4 1h-2V42z"/><path fill="#71301B" d="M81 42h5l2 1 4 7 5-7 1-1h5v21h-2l-4-1v-9l-3 3v1h-1-2-1l-2-4-1 2v7l-4 1h-2V42z"/><path fill="#702F1B" d="M81 42h5l2 1 4 7 5-7 1-1h5v21h-2l-4-1v-9l-3 3v1h-1-2-1l-2-4-1 2v7l-4 1h-2V42z"/><path fill="#702F1B" d="M81 42h5l2 1 4 7 5-7 1-1h5v20l-1 1h-1l-3-1-1-1v-8l-3 3v1h-1-2-1v-1l-2-3-1 2v7l-4 1h-1l-1-1V42z"/><path fill="#6F2F1B" d="M81 42h5l2 1 4 7 5-7 1-1h5v20l-1 1h-1l-3-1-1-1v-8l-3 3v1h-1-2-1v-1l-2-3-1 2v7l-4 1h-1l-1-1c0-1 0 0 0 0V42z"/><path fill="#6E2F1B" d="M81 42h5l2 1 4 7 5-7 1-1h5v20l-1 1h-1l-3-1-1-1v-8a1452 1452 0 0 0-4 4h-2-1v-1l-2-3-1 2v6l-4 2h-1l-1-1V42z"/><path fill="#6D2F1B" d="M81 42h5l2 1 4 7 5-7 1-1h5v20l-1 1h-1l-3-1-1-1v-8s0-1 0 0l-3 3v1h-1-2-1v-1l-2-3-1 2v6l-4 2h-1l-1-1V42z"/><path fill="#6C2F1B" d="M81 42h5l2 1 4 7 5-7 1-1h5v20l-1 1h-1l-3-2h-1v-8-1a2968 2968 0 0 0-4 5h-2-1v-1l-2-3-1 1v7l-4 2h-1l-1-1V42z"/><path fill="#6B2F1B" d="M81 42h5l2 1 4 8 5-8 1-1h5v20l-1 1h-1l-3-2h-1v-8-1a6439 6439 0 0 1-4 5h-2-1v-1l-2-3-1 1v7l-4 2h-1l-1-1V42z"/><path fill="#6A2F1B" d="M81 42h5l2 1 4 8 5-8 1-1h5v20l-1 1h-1l-3-2h-1v-8-1a3783 3783 0 0 0-4 5h-2-1v-1l-2-3-1 1v7l-4 2h-1l-1-1V42z"/><path fill="#692F1B" d="M81 42h5l2 1 4 8 5-8 1-1h5v20l-1 1h-1l-3-2h-1v-8-1a4146 4146 0 0 1-4 5h-2-1v-1l-2-3-1 1v7l-4 2h-1l-1-1V42z"/><path fill="#682F1B" d="M81 42h5l2 1 4 8 5-8 1-1h5v20l-1 1h-1l-3-2h-1v-8-1a14117 14117 0 0 0-4 5h-2-1v-1l-2-3-1 1v7l-4 2h-1l-1-1V42z"/><path fill="#672E1B" d="M81 42h5l2 1 4 8 5-8 1-1h5v20l-1 1h-1l-3-2h-1v-9c0 1 0 0 0 0a1869 1869 0 0 1-4 5h-2-1v-1l-2-3-1 1v7l-4 2h-1l-1-1V42z"/><path fill="#662E1B" d="M81 42h5l2 1 4 8 5-8 1-1h5v20l-1 1h-1l-3-2h-1v-9l-3 4-1 1h-2-1v-1l-2-3-1 1v7c0 1 0 0 0 0l-4 2h-1l-1-1V43v-1z"/><path fill="#662E1B" d="M81 42h5l2 1 4 8 5-8 1-1h5v20l-1 1h-1l-3-2h-1v-9l-3 4-1 1h-2-1v-1l-2-4-1 2v7h-1l-3 2h-1l-1-1V43v-1z"/><path fill="#652E1B" d="M81 42h5l2 1 4 8 5-8 1-1h5v20h-2l-3-1h-1v-9a7974 7974 0 0 1-4 5h-2-1v-1l-2-4-1 2v6l-1 1-3 1h-1-1V43v-1z"/><path fill="#642E1B" d="M81 42h5l2 1 4 8 5-8 1-1h5v20h-2l-3-1h-1v-9l-3 4-1 1h-2l-1-1-2-4-1 2v6l-1 1-3 1h-1-1V43v-1z"/><path fill="#632E1B" d="M81 42h5l2 1 4 8 5-8 1-1h5v20h-2l-3-1-1-1v-8l-3 4-1 1h-2l-1-1-2-4-1 2v6l-1 1-3 1h-1-1V43v-1z"/><path fill="#622E1B" d="M81 42h5l2 1 4 8 5-8 1-1h5v20h-2l-3-1-1-1v-8a1800 1800 0 0 0-4 5h-2l-1-1-2-4-1 2v6l-1 1-3 1h-1-1V43v-1z"/><path fill="#612D1B" d="M81 42h5l2 1 4 8 5-8 1-1h5v20h-2l-3-1-1-1v-8l-3 4-1 1h-2l-1-1-2-4-1 1v7l-1 1-3 1h-1-1V43v-1z"/><path fill="#602D1B" d="M81 42h5l2 1 4 8 5-8 1-1h5v20h-2l-3-1-1-1v-8a1299 1299 0 0 1-4 5h-2l-1-1-2-4-1 1v7l-1 1-3 1h-1-1V43v-1z"/><path fill="#5F2D1B" d="M81 42h3l2 1 2 1 4 7 5-7 1-1 2-1h3v20h-2l-3-1-1-1v-8a2691 2691 0 0 1-4 5h-2l-1-1-2-4-1 1v7l-1 1-3 1h-1-1V43v-1z"/><path fill="#5F2D1B" d="M81 42h3l2 1 2 1 4 7 5-7 1-1 2-1h3v20h-2l-3-1-1-1v-8l-3 4-1 1h-2l-1-1-2-4-1 1v7h-1l-3 2h-1-1V43v-1z"/><path fill="#5E2D1B" d="M81 42h3l2 1 2 1 4 7 5-7 1-1 2-1h3v20h-2l-3-1-1-1v-8l-3 3v1l-1 1h-2l-1-1-2-4-1 1v7h-1l-3 2h-1-1V43v-1z"/><path fill="#5D2D1B" d="M81 42h3l2 1 2 1 4 7 5-7 1-1 2-1h3v20h-2l-3-1-1-1v-8l-3 3v1l-1 1h-2l-1-1-2-4-1 1v7h-1l-3 2h-1-1V43v-1z"/><path fill="#5C2D1B" d="M81 42h3l2 1 2 1 4 7 5-7 1-1 2-1h3v20h-2l-3-2h-1v-8l-3 3v1h-1l-1 1h-1l-1-1-2-4-1 1v7h-1l-3 2h-1-1V43v-1z"/><path fill="#5B2C1B" d="M81 42h3l2 1 2 1 4 7 5-7 1-1 2-1h3v20h-2l-3-2h-1v-8l-3 3v1h-1l-1 1h-1l-1-1-2-4-1 1v7h-1l-2 2h-2-1V43v-1z"/><path fill="#5A2C1B" d="M81 42h3l2 1 2 1 4 7 5-7 1-1 2-1h3v20h-2l-3-2h-1v-8a6858 6858 0 0 0-4 4l-1 1h-1l-1-1-2-4-1 1v7h-1l-2 2h-2-1V43v-1z"/><path fill="#592C1B" d="M81 42h3l2 1 2 1 4 7 5-7 1-1 2-1h3v20h-3l-2-2h-1v-8l-3 3v1h-1l-1 1h-1l-1-1-2-4-1 1v7h-1l-2 2h-2-1V43v-1z"/><path fill="#592C1B" d="M81 42h3l2 1 2 1 4 7 5-7 1-1 2-1h3v20h-3l-2-2h-1v-8s0-1 0 0l-3 3v1h-1l-1 1h-1l-1-1-2-4-1 1v7h-1l-2 2h-2-1V43v-1z"/><path fill="#582C1A" d="M81 42h3l2 1 2 1 4 7 5-7 1-1 2-1h3v20h-3l-2-2h-1v-8-1l-3 4v1h-1l-1 1h-1l-1-1-2-4-1 1v6l-1 1-2 2h-2-1V43v-1z"/><path fill="#572B1A" d="M81 42h3l2 1 2 1 4 7 5-7 1-1 2-1h3v20h-3l-2-2h-1v-8-1l-3 4v1h-1l-1 1h-1v-1h-1l-2-4h-1v7l-1 1-2 2h-2-1V43v-1z"/><path fill="#562B1A" d="M81 42h3l2 1 2 1 4 7 5-7 1-1 2-1h3v20h-3l-2-2h-1v-9c0 1 0 0 0 0l-3 4v1h-1l-1 1h-1v-1h-1l-2-4h-1v7l-1 1-2 2h-2-1V43v-1z"/><path fill="#552B1A" d="M81 42h3l2 1 2 1 4 7 5-7 1-1 2-1h3v20h-3l-2-2-1-1v-8a1877 1877 0 0 0-4 5l-1 1h-1v-1h-1l-2-4h-1v7l-1 1-2 2h-2-1V43v-1z"/><path fill="#542B1A" d="M81 42h3l2 1 2 1 4 7 5-7 1-1 2-1h3v20h-3l-2-2-1-1v-8l-3 4v1h-1l-1 1h-1v-1h-1l-2-4h-1v7l-1 1-2 2h-2-1V43v-1z"/><path fill="#542B1A" d="M81 42h4l1 1 2 1 4 7 5-7 1-1 2-1h3v20h-3l-2-2v-1h-1v-8a4825 4825 0 0 0-4 5l-1 1h-1v-1h-1l-2-4h-1v7l-1 1-2 2h-2-1V43v-1z"/><path fill="#532B1A" d="M81 42h4l1 1 2 1 4 7 5-7 1-1 2-1h3v20h-3l-2-2v-1h-1v-8a3977 3977 0 0 1-4 5l-1 1h-1v-1h-1l-2-4h-1v7l-1 1-2 2h-2-1V43v-1z"/><path fill="#522A1A" d="M82 42h3l1 1 2 1 4 7 5-7 1-1 2-1h3v20h-3l-2-2v-1h-1v-8l-3 4v1h-1l-1 1h-1v-1h-1l-2-4h-1v7l-1 1-2 2h-2l-1-1V43l1-1z"/><path fill="#512A1A" d="M82 42h3l1 1 2 1 4 8 5-8 1-1 2-1h3v20h-3l-2-2v-1l-1-1v-7a3614 3614 0 0 0-4 5l-1 1h-1v-1h-1l-2-4h-1v7h-1l-2 3h-2l-1-1V43l1-1z"/><path fill="#502A1A" d="M82 42h3l1 1 2 1 4 8 5-8 1-1 2-1h3v20h-3l-2-2v-1l-1-1v-7l-3 4v1h-1l-1 1h-1v-1h-1l-2-4h-1v7h-1l-2 3h-2l-1-1V43l1-1z"/><path fill="#4F2A1A" d="M82 42h3l1 1 2 1 4 8 5-8 1-1 2-1h3v20h-3l-2-2v-1l-1-1v-7a2213 2213 0 0 0-4 5l-1 1h-1v-1h-1l-2-4h-1v7h-1l-2 3h-2l-1-1V43l1-1z"/><path fill="#4F2A1A" d="M82 42h3l2 1 1 1 4 8 5-8 1-1 2-1h3v20h-3l-2-2v-1l-1-1v-7a3093 3093 0 0 1-4 5l-1 1h-1v-1h-1l-2-4h-1v7h-1l-2 3h-2l-1-1V43l1-1z"/><path fill="#4E291A" d="M82 42h3l2 1 1 1 4 8 5-8 1-1 2-1h3v20h-3l-2-3-1-1v-7l-3 4v1h-1l-1 1h-1v-1h-1l-2-4-1-1v8h-1l-2 3h-2l-1-1V43l1-1z"/><path fill="#4D291A" d="M82 42h3l2 1 1 1 4 8 5-8 1-1 1-1h4v20h-3l-2-3-1-1v-7a2084 2084 0 0 0-4 5l-1 1h-1v-1h-1l-2-4-1-1v7l-1 1-2 3h-2l-1-1V43l1-1z"/><path fill="#4C291A" d="M82 42h3l2 1 1 1 4 8 5-8 1-1 1-1h4v20h-3l-2-3v-8h-1a4411 4411 0 0 0-4 5l-1 1h-1v-1l-1-1-2-4h-1v7h-1v1l-2 3h-2l-1-1V43l1-1z"/><path fill="#4B291A" d="M82 42h3l2 1 1 1 4 8 5-8 1-1 1-1h3l1 1v18l-1 1h-2l-2-3v-8h-1a5990 5990 0 0 1-4 5l-1 1h-1v-1l-1-1-2-4h-1v7h-1v1l-2 3h-2l-1-1V43l1-1z"/><path fill="#4B291A" d="M82 42h3l2 1 1 1 4 8 5-8 1-1 1-1h3l1 1v18l-1 1c-1 0 0 0 0 0h-2l-2-3v-8h-1l-3 4-1 1-1 1h-1v-1l-1-1-2-4h-1v7h-1v1l-2 3h-2V43v-1z"/><path fill="#4A281A" d="M82 42h3l2 1 1 1 4 8 5-8 1-1 1-1h3l1 1v18l-1 1h-2l-2-3v-8h-1l-3 4-1 1-1 1h-1v-1l-1-1-2-4h-1v7h-1v1l-2 3h-2V43v-1z"/><path fill="#49281A" d="M82 42h3l2 1 1 2 4 7 4-8 2-1 1-1h3l1 1v18l-1 1h-2l-2-3v-8h-1l-3 4-1 1-1 1h-1v-1l-1-1-2-4h-1v6l-1 1v1l-2 3h-2V43v-1z"/><path fill="#48281A" d="M82 42h3l2 1 1 2 4 7 4-7 2-2 1-1h3l1 1v18l-1 1h-2l-2-3v-9l-1 1-3 4-1 1-1 1h-1v-1l-1-1-2-4h-1v6l-1 1v1l-2 3h-2V43v-1z"/><path fill="#472819" d="M82 43v-1h3l2 1 1 2 4 7 4-7 2-2 1-1h3v1h1v18l-1 1h-2l-2-3v-9l-1 1a3548 3548 0 0 1-4 5l-1 1h-1v-1l-1-1-2-4h-1v6l-1 1v1l-2 3h-2V43z"/><path fill="#472819" d="M82 43v-1h3l2 1 1 2 4 7 4-7 2-2 1-1h3v1h1v18l-1 1h-2l-2-3v-9l-1 1s0-1 0 0l-3 4-1 1-1 1h-1v-1l-1-1-2-4h-2v8l-2 3h-2V43z"/><path fill="#462719" d="M82 43v-1h3l2 2 1 1 4 7 4-7 2-1 1-2h3v20h-2l-2-3v-9h-1v1a2412 2412 0 0 1-4 5l-1 1h-1v-1l-1-1-2-4h-2v8l-2 3h-2V43z"/><path fill="#452719" d="M82 43v-1h3l2 2 1 1 4 7 4-7 2-1 1-2h3v20h-2l-2-3v-1-8h-1c0 1 0 0 0 0l-3 4v1l-1 1-1 1h-1v-1l-1-1-2-4h-2v8l-2 3h-2V43z"/><path fill="#442719" d="M82 43v-1h3l2 2 1 1 4 7 4-7 2-1 1-2h3v20h-2l-2-3v-1-8h-1l-3 4v1l-1 1-1 1h-1v-1l-1-1-2-4-2-1v8l-2 4h-2V43z"/><path fill="#432719" d="M82 43v-1h3l2 2 1 1 4 7 4-7 2-1 1-2h3v20h-2l-2-3v-1-8h-1l-3 4v1l-1 1-1 1h-1v-1l-1-1-2-4-2-1v8l-2 4h-2V43z"/><path fill="#432619" d="M82 43v-1h3l2 2 1 1 4 7 4-7 2-1 1-2h3v20h-2l-2-3v-1-8h-1l-3 4v1l-1 1-1 1h-1v-1l-1-1-2-4-2-1v8l-2 4h-2V43z"/><path fill="#422619" d="M82 43h3l2 1 1 1 4 7 4-7 2-1 1-1h3v19h-2l-2-3v-1-8h-1a4444 4444 0 0 1-4 6h-2l-1-1-2-4-2-1v8l-2 4h-2V43z"/><path fill="#412619" d="M82 43h3l2 1 1 1 4 7 4-7 2-1 1-1h3v19h-2l-2-3v-1-8h-1a3066 3066 0 0 0-4 6h-2l-1-1-2-4-2-1v8l-2 4h-1-1V43z"/><path fill="#402619" d="M82 43h3l2 1 1 1 4 7 4-7 2-1 1-1h3v19h-2l-2-4v-8h-1l-3 4v1l-1 1h-2l-1-1-2-4-2-1v8l-2 4h-1-1V43z"/><path fill="#3F2519" d="M82 43h3l2 1 1 1 4 7 4-7 2-1 1-1h3v19h-2l-2-4v-8h-1a6129 6129 0 0 1-4 5l-1 1h-1l-1-1-2-4-2-1v8l-2 4h-1-1V43z"/><path fill="#3F2519" d="M82 43h3l2 1 1 1 4 7 4-7 2-1 1-1h3v19h-2l-2-4v-8h-1a3751 3751 0 0 1-4 5l-1 1h-1l-1-1-2-4-2-1v8l-2 4h-1-1V43z"/><path fill="#3E2518" d="M82 43h3l2 1 1 1 4 7 4-7 2-1 1-1h3v19h-2l-2-4v-9l-1 1-3 4v1h-1l-1 1h-1l-1-1-2-4-2-1v8l-2 4h-1-1V43z"/><path fill="#3D2518" d="M82 43h3l2 1 1 1 4 7 4-7 1-1 2-1h3v19h-2l-2-4v-9l-1 1-3 4v1h-1l-1 1h-1l-1-1-2-4-2-1v8l-2 4h-1-1V43z"/><path fill="#3C2418" d="M82 43h3l2 1 1 1 4 7 4-7 1-1 2-1h3v19h-2l-2-4v-9l-1 1-3 4v1h-1l-1 1h-1l-1-1-2-4-2-1v8l-2 4h-1-1V43z"/><path fill="#3B2418" d="M82 43h3l2 1 1 1 4 7 4-7 1-1 2-1h3v19h-2l-2-4v-1c0-1 0 0 0 0v-8l-1 1-3 4v1h-1l-1 1h-1l-1-1-2-4-2-1v8l-2 4h-1-1V43z"/><path fill="#3B2418" d="M82 43h3l2 1 1 1 4 7 4-7 1-1 2-1h3v19h-2l-2-4v-9l-1 1a24473 24473 0 0 1-3 5h-1l-1 1h-1l-1-1-2-4-2-2v9l-2 4h-1-1V43z"/><path fill="#3A2418" d="M82 43h3l2 1 1 1 4 7 4-7 1-1 2-1h3v19h-2l-2-4v-9l-1 1a13578 13578 0 0 1-3 5h-1l-1 1h-1l-1-1-2-4-2-2v9l-2 4h-1-1V43z"/><path fill="#392318" d="M82 43h3l2 1 1 1 4 8 4-8 1-1 2-1h3v18l-1 1h-1l-2-4v-9l-1 1a23683 23683 0 0 0-3 5h-1l-1 1h-1l-1-1-2-4-2-2v9l-2 4h-1l-1-1V43z"/><path fill="#382318" d="M82 43h3l2 1 1 1 4 8 4-8 1-1 2-1h3v18l-1 1h-1l-2-4v-1-8l-1 1-3 4v1h-1l-1 1h-1l-1-1-2-4-2-2v9l-2 4h-1l-1-1V43z"/><path fill="#382318" d="M82 43h3l2 1 1 1 4 8 4-8 1-1 2-1h3v18l-1 1h-1l-2-4v-1-8l-1 1a2635 2635 0 0 0-3 5h-1l-1 1h-1l-1-1-2-4-2-2v8l-2 5h-1l-1-1V43z"/><path fill="#372217" d="M82 43h3l2 1 1 1 4 8 4-8 1-1 2-1h3v18l-1 1h-1l-2-4v-1-8l-1 1-3 4v1h-1l-1 1h-1l-1-1-2-4-2-2v8l-2 5h-1l-1-1V43z"/><path fill="#362217" d="M82 43h3l2 1 1 1 4 8 4-8 1-1 2-1h3v18l-1 1h-1l-2-4v-1-8h-1v1l-3 4v1h-1l-1 1h-1l-1-1-2-4-2-2v8l-2 5h-1l-1-1V43z"/><path fill="#352217" d="M82 43h3l2 1 1 1 4 8 4-8 1-1 2-1h3v18h-2l-2-3v-1-8h-1v1a3992 3992 0 0 0-3 4l-1 1-1 1h-1l-1-1-2-5-2-1v8l-1 4h-2-1V43z"/><path fill="#342217" d="M82 43h3l2 1 1 1 4 8 4-8 1-1 2-1h3v18h-2l-2-3v-1-8h-1v1a6480 6480 0 0 0-3 4l-1 1-1 1h-1l-1-1-2-5-2-1v8l-1 4h-2-1V43z"/><path fill="#342117" d="M82 43h3l2 1 1 1 4 8 4-8 1-1 2-1h3v18h-2l-2-3v-1-9l-1 1v1l-3 4-1 1-1 1h-1l-1-1-2-5-2-1v8l-1 4h-2-1V43z"/><path fill="#332117" d="M82 43h3l2 1 1 2 4 7 4-7 1-2 2-1h3v18h-2l-2-4v-9l-1 1v1l-3 4-1 1-1 1h-1v-1h-1l-2-5-2-1v8l-1 4h-2-1V43z"/><path fill="#322117" d="M82 43h3l2 1 1 2 4 7 4-7 1-2 2-1h3v18h-3l-1-4v-9l-1 1a19226 19226 0 0 0-3 5l-1 1-1 1h-1v-1h-1l-2-5-2-1v8l-1 4h-2-1V43z"/><path fill="#312016" d="M82 43h3l2 1 1 2 4 7 4-7 1-2 2-1h3v18h-3l-1-4v-9l-1 1a4913 4913 0 0 0-3 5l-1 1-1 1h-1v-1h-1l-2-5-2-2v9l-1 4h-2-1V43z"/><path fill="#302016" d="M82 43h3l2 1 1 2 4 7 4-7 1-2 2-1h3v18h-3l-1-4v-9l-1 1-3 5-1 1-1 1h-1v-1h-1l-2-5-2-2v9l-1 4h-2-1V43z"/><path fill="#302016" d="M82 43h3l2 1 1 2 4 7 4-7 1-2 2-1h3v18h-3l-1-4v-9l-1 1-3 4v1l-1 1-1 1h-1v-1h-1l-2-5-2-2v9l-1 4h-2-1V44v-1z"/><path fill="#2F1F16" d="M82 43h3l2 1 1 2 4 7 4-7 1-2 2-1h3v18h-3l-1-4v-9l-1 1-3 4v1l-1 1-1 1h-1v-1h-1l-2-5-2-2v9l-1 4h-2-1V44v-1z"/><path fill="#2E1F16" d="M82 43h3l2 1 1 2 4 7 4-7 1-2 2-1h3v18h-3l-1-4v-9l-1 1-3 4v1l-1 1-1 1h-1v-1h-1l-2-5-2-2v9l-1 4h-2-1V44v-1z"/><path fill="#2D1F15" d="M82 43h3l2 2 1 1 4 7 4-7 1-1 2-2h3v18h-3l-1-4v-9l-1 1-3 4v1l-1 1-1 1h-1v-1h-1l-2-5-2-2v9l-1 4h-2-1V44v-1z"/><path fill="#2C1E15" d="M82 43h3l2 2 1 1 4 7 4-7 1-1 2-2h3v18h-3l-1-4v-1-8l-1 1-3 4v1l-1 1-1 1h-1v-1h-1l-2-5-2-2v9l-1 4h-2-1V44v-1z"/><path fill="#2B1E15" d="M82 43h3l2 2 1 1 4 7 4-7 1-1 2-2h3v18h-3l-1-4v-1-8l-1 1a6165 6165 0 0 1-3 5l-1 1-1 1h-1v-1l-1-1-2-4-2-2v9l-1 4h-2-1V44v-1z"/><path fill="#2B1E15" d="M82 43h3l2 2 1 1 4 7 4-7 1-1 2-2h3v18h-3l-1-4v-1-8l-1 1-3 4v1l-1 1-1 1h-1v-1l-1-1-2-4-2-2v8l-1 5h-2-1V44v-1z"/><path fill="#2A1D14" d="M82 43h3l2 2 1 1 4 7 4-7 1-1 2-2h3v18h-3l-1-4v-1-9l-1 2-3 4v1l-1 1-1 1h-1v-1l-1-1-2-4-2-2v8l-1 5h-2-1V44v-1z"/><path fill="#291D14" d="M82 43h3l2 2 1 1 4 7 4-7 1-1 2-2h3v18h-3l-1-4v-1-9l-1 2-3 4v1l-1 1-1 1h-1v-1l-1-1-2-4-2-2v8l-1 5h-2-1V44v-1z"/><path fill="#281C14" d="M82 43h3l2 2 1 1 4 7 4-7 1-1 2-2h3v18h-3l-1-4v-1-9l-1 2-3 4v1l-1 1-1 1h-1v-1l-1-1-2-4-2-3v9l-1 5h-2-1V44v-1z"/><path fill="#271C14" d="M82 43h3l2 2 1 1 4 7 4-7 1-1 2-2h3v18h-3l-1-4v-1-9l-1 2-3 4v1l-1 1-1 1h-1v-1l-1-1-2-4-2-3v9l-1 5h-2-1V44v-1z"/><path fill="#261C13" d="M82 43h3l2 2 1 1 4 7 4-7 1-1 2-2h3v18h-3l-1-4v-1-9l-1 2-3 4v1l-1 1-1 1h-1v-1l-1-1-2-4-2-3v9l-1 5h-2-1V44v-1z"/><path fill="#251B13" d="M82 43h3l2 2 1 1 4 7 4-7 1-1 2-2h3v18h-3l-1-4v-1-9l-1 1v1l-3 4v1l-1 1-1 1h-1v-1l-1-1-2-4-2-3v9l-1 5h-2-1V44v-1z"/><path fill="#251B13" d="M82 43h3l2 2 1 1 4 7 4-7 1-1 2-2h3v18h-3l-1-5v-9l-1 1v1l-3 4v1l-1 1-1 1h-1v-1l-1-1-2-4-2-3v9l-1 5h-2-1V44v-1z"/><path fill="#241A12" d="M82 43h3l2 2 1 1 4 7 4-7 1-1 2-2h3v18h-3v-5h-1v-9l-1 1v1l-3 4v1h-1l-1 2h-1v-1l-1-1-2-4-2-3v9l-1 5h-2-1V44v-1z"/><path fill="#231A12" d="M82 43h3l2 2 1 1 4 7 4-7 1-1 2-2h3v18h-3v-5h-1v-9l-1 1v1l-3 4v1h-1l-1 2-1-1-1-1-2-4-2-3v9l-1 5h-2-1V44v-1z"/><path fill="#221912" d="M82 43h3l2 2 1 1 4 7 4-7 1-1 2-2h3v18h-3v-5h-1v-9l-1 1v1a8653 8653 0 0 1-3 5h-1l-1 2-1-1-1-1-2-4-2-3v9l-1 5h-2-1V44v-1z"/><path fill="#211912" d="M82 43h3l2 2 1 1 4 7 4-7 1-1 2-2h3v18h-3v-5l-1-1v-8l-1 1v1l-3 4v1h-1l-1 2-1-1-1-1-2-4-2-3v9l-1 5h-2-1V44v-1z"/><path fill="#201811" d="M82 43h3l2 2 1 1 4 8 4-8 1-1 2-2h3v18h-3v-5l-1-1v-8l-1 1v1l-3 4v1h-1l-1 2-1-1-1-1-2-4-2-3v9l-1 5h-2-1V44v-1z"/><path fill="#1F1811" d="M82 43h3l2 2 1 1 4 8 4-8 1-1 2-2h3v18h-3v-5l-1-1v-8l-1 1v1a4637 4637 0 0 0-3 5h-1l-1 2-1-1-1-1-2-4-2-3v9l-1 5h-2-1V44v-1z"/><path fill="#1E1710" d="M82 43h3l2 2 1 1 4 8 4-8 1-1 2-2h3v18h-3v-5-1l-1-1v-8l-1 2-3 5v1h-1l-1 2-1-1-1-1-2-4-2-3v9l-1 5h-2-1V44v-1z"/><path fill="#1D1710" d="M82 43h3l2 2 1 1 4 8 4-8 1-1 2-2h3v18h-3v-5-1-9l-2 2-3 5v1h-1l-1 2-1-1-1-1-2-4-2-4v10l-1 5h-2-1V44v-1z"/><path fill="#1C1610" d="M83 43h3l1 2 1 1 4 8 4-8 1-1 2-2h3v18h-3v-5-1-9l-2 2a4043 4043 0 0 0-3 5l-1 1-1 2-1-1-1-1-2-4-2-4v9l-1 6h-2l-1-1V44l1-1z"/><path fill="#1B160F" d="M83 43h3l1 2 1 1 4 8 4-8 1-1 2-2h3v18h-3v-5-1-9l-2 2-3 5-1 1-1 2-1-1-1-1-2-5-2-3v9l-1 6h-2V44v-1z"/><path fill="#1A150F" d="M83 43h3l1 2 1 2 4 7 4-7 1-2 2-2h3v18h-3v-5-1-9l-2 2-2 5h-1l-1 1-1 2-1-1-1-1-2-5-2-3v9l-1 6h-2V44v-1z"/><path fill="#19150F" d="M83 43h3l1 2 1 2 4 7 4-7 1-2 2-2h3v18h-3v-5-1-9l-2 2-2 5h-1l-1 1-1 2-1-1-1-1-2-5-2-3v8l-1 1v6h-2V44v-1z"/><path fill="#19140E" d="M83 43h3l1 2 1 2 4 7 4-7 1-2 2-2h3v18h-3v-5-1-9l-2 2-2 5h-1l-1 1-1 2-1-1-1-1-2-5-2-3v8l-1 1v6h-2V44v-1z"/><path fill="#18140E" d="M83 43h3l1 2 1 2 4 7 4-7 1-2 2-2h3v18h-3v-5-1-9l-2 2-2 5h-1l-1 1-1 2-1-1-1-1-2-5-2-3v8l-1 1v6h-2V44v-1z"/><path fill="#16130D" d="M83 43h3l1 2 1 2 4 7 4-7 1-2 2-2h3v18h-3v-5-1-9l-2 2a4641 4641 0 0 1-3 5v1l-2 2-1-1v-1l-3-5-3-3v15h-2V44v-1z"/><path fill="#15130D" d="M83 43h3l1 2 1 2 4 7 4-7 1-2 2-2h3v18h-3v-5-1-9l-2 2-2 4-1 1v1l-1 2h-1l-1-1v-1l-3-5-3-3v15h-1-1V44v-1z"/><path fill="#14120C" d="M83 43h3l1 2 1 2 4 7 4-7 1-2 1-2h3v18h-2v-5-1-9l-2 2-2 4-1 1v1l-1 2h-1l-1-1v-1l-3-5-3-3v15h-1-1V44v-1z"/><path fill="#13110C" d="M83 43h3l1 2 1 2 4 7 4-7 1-2 1-2h3v18h-2v-6-9l-2 2-2 4-1 1v1l-1 2h-1l-1-1v-1l-3-5-3-3v15h-1-1V44v-1z"/><path fill="#12110B" d="M83 43h3l1 2 1 2 4 7 4-7 1-2 1-2h3v18h-2v-6-9l-2 1v1l-2 4-1 1v1l-1 2h-1a54 54 0 0 1-1-2l-3-5-3-3v15h-1-1V44v-1z"/><path fill="#11100B" d="M83 43h3l1 2 1 2 4 7 4-7 1-2 1-2h3v18h-2v-6-10l-2 2v1l-2 4-1 1v1l-1 2h-1l-1-1v-1l-3-5-3-4v16h-1-1V44v-1z"/><path fill="#F9ED23" d="M99 61V45l-2 2-4 9h-1l-7-11v16h-2V43h3l6 11 6-11h3v18h-2z"/></svg>